<mxfile host="app.diagrams.net" modified="2023-05-02T06:53:53.251Z" agent="5.0 (Windows NT 10.0; Win64; x64) AppleWebKit/537.36 (KHTML, like Gecko) Chrome/112.0.0.0 Safari/537.36" etag="Kzo13IF_Tn0bxahjutT5" version="20.8.20" type="github">
  <diagram name="第 1 页" id="SK5onqbqt3w3e6Erg7ZF">
    <mxGraphModel dx="1052" dy="589" grid="1" gridSize="10" guides="1" tooltips="1" connect="1" arrows="1" fold="1" page="1" pageScale="1" pageWidth="827" pageHeight="1169" math="0" shadow="0">
      <root>
        <mxCell id="0" />
        <mxCell id="1" parent="0" />
        <mxCell id="h27i9BGJYEJWcCs8Se6V-23" value="" style="edgeStyle=orthogonalEdgeStyle;rounded=0;orthogonalLoop=1;jettySize=auto;html=1;fontFamily=Times New Roman;fontSize=16;fontColor=#000000;" parent="1" source="h27i9BGJYEJWcCs8Se6V-21" target="h27i9BGJYEJWcCs8Se6V-22" edge="1">
          <mxGeometry relative="1" as="geometry" />
        </mxCell>
        <mxCell id="h27i9BGJYEJWcCs8Se6V-21" value="PCF Parser" style="rounded=0;whiteSpace=wrap;html=1;labelBackgroundColor=#ffffff;fontFamily=Times New Roman;fontSize=16;fontColor=#000000;shadow=1;" parent="1" vertex="1">
          <mxGeometry x="190" y="280" width="90" height="40" as="geometry" />
        </mxCell>
        <mxCell id="h27i9BGJYEJWcCs8Se6V-25" value="" style="edgeStyle=orthogonalEdgeStyle;rounded=0;orthogonalLoop=1;jettySize=auto;html=1;fontFamily=Times New Roman;fontSize=16;fontColor=#000000;" parent="1" source="h27i9BGJYEJWcCs8Se6V-22" target="h27i9BGJYEJWcCs8Se6V-24" edge="1">
          <mxGeometry relative="1" as="geometry" />
        </mxCell>
        <mxCell id="h27i9BGJYEJWcCs8Se6V-22" value="PCF&amp;nbsp;→ CPS" style="rounded=0;whiteSpace=wrap;html=1;labelBackgroundColor=#ffffff;fontFamily=Times New Roman;fontSize=16;fontColor=#000000;shadow=1;" parent="1" vertex="1">
          <mxGeometry x="360" y="280" width="100" height="40" as="geometry" />
        </mxCell>
        <mxCell id="h27i9BGJYEJWcCs8Se6V-28" value="" style="edgeStyle=orthogonalEdgeStyle;rounded=0;orthogonalLoop=1;jettySize=auto;html=1;fontFamily=Times New Roman;fontSize=16;fontColor=#000000;" parent="1" source="h27i9BGJYEJWcCs8Se6V-24" target="h27i9BGJYEJWcCs8Se6V-27" edge="1">
          <mxGeometry relative="1" as="geometry" />
        </mxCell>
        <mxCell id="h27i9BGJYEJWcCs8Se6V-24" value="CPS → SSA" style="rounded=0;whiteSpace=wrap;html=1;labelBackgroundColor=#ffffff;fontFamily=Times New Roman;fontSize=16;fontColor=#000000;shadow=1;" parent="1" vertex="1">
          <mxGeometry x="540" y="280" width="100" height="40" as="geometry" />
        </mxCell>
        <mxCell id="aGqzKjwZJQ5fDSUdYJ73-3" value="" style="edgeStyle=orthogonalEdgeStyle;rounded=0;orthogonalLoop=1;jettySize=auto;html=1;" edge="1" parent="1" source="h27i9BGJYEJWcCs8Se6V-27" target="h27i9BGJYEJWcCs8Se6V-35">
          <mxGeometry relative="1" as="geometry" />
        </mxCell>
        <mxCell id="h27i9BGJYEJWcCs8Se6V-27" value="SSA → Vellvm LLVM IR" style="rounded=0;whiteSpace=wrap;html=1;labelBackgroundColor=#ffffff;fontFamily=Times New Roman;fontSize=16;fontColor=#000000;shadow=1;" parent="1" vertex="1">
          <mxGeometry x="497.5" y="355" width="185" height="40" as="geometry" />
        </mxCell>
        <mxCell id="h27i9BGJYEJWcCs8Se6V-34" value="" style="edgeStyle=orthogonalEdgeStyle;rounded=0;orthogonalLoop=1;jettySize=auto;html=1;fontFamily=Times New Roman;fontSize=16;fontColor=#000000;" parent="1" source="h27i9BGJYEJWcCs8Se6V-33" target="h27i9BGJYEJWcCs8Se6V-21" edge="1">
          <mxGeometry relative="1" as="geometry" />
        </mxCell>
        <mxCell id="h27i9BGJYEJWcCs8Se6V-33" value="PCF Program Text" style="text;html=1;strokeColor=none;fillColor=none;align=center;verticalAlign=middle;whiteSpace=wrap;rounded=0;fontSize=16;fontFamily=Times New Roman;fontColor=#000000;" parent="1" vertex="1">
          <mxGeometry x="100" y="285" width="60" height="30" as="geometry" />
        </mxCell>
        <mxCell id="h27i9BGJYEJWcCs8Se6V-35" value="LLVM IR Text" style="text;html=1;strokeColor=none;fillColor=none;align=center;verticalAlign=middle;whiteSpace=wrap;rounded=0;fontSize=16;fontFamily=Times New Roman;fontColor=#000000;" parent="1" vertex="1">
          <mxGeometry x="359" y="360" width="110" height="30" as="geometry" />
        </mxCell>
        <mxCell id="h27i9BGJYEJWcCs8Se6V-37" value="PCF Program" style="text;html=1;strokeColor=none;fillColor=none;align=center;verticalAlign=middle;whiteSpace=wrap;rounded=0;fontSize=16;fontFamily=Times New Roman;fontColor=#000000;" parent="1" vertex="1">
          <mxGeometry x="290" y="255" width="60" height="30" as="geometry" />
        </mxCell>
        <mxCell id="h27i9BGJYEJWcCs8Se6V-38" value="CPS Program" style="text;html=1;strokeColor=none;fillColor=none;align=center;verticalAlign=middle;whiteSpace=wrap;rounded=0;fontSize=16;fontFamily=Times New Roman;fontColor=#000000;" parent="1" vertex="1">
          <mxGeometry x="470" y="262.5" width="60" height="15" as="geometry" />
        </mxCell>
        <mxCell id="h27i9BGJYEJWcCs8Se6V-39" value="SSA Program" style="text;html=1;strokeColor=none;fillColor=none;align=center;verticalAlign=middle;whiteSpace=wrap;rounded=0;fontSize=16;fontFamily=Times New Roman;fontColor=#000000;" parent="1" vertex="1">
          <mxGeometry x="600" y="330" width="100" height="15" as="geometry" />
        </mxCell>
      </root>
    </mxGraphModel>
  </diagram>
</mxfile>
